<svg version="1" xmlns="http://www.w3.org/2000/svg" width="1728" height="1728" viewBox="0 0 1296.000000 1296.000000"><path d="M626 1.1C472.4 7.6 336.7 61.2 221 161.4c-14.8 12.8-49.7 47.8-62.4 62.6C83.9 311.2 35.4 409.9 13 520.4 0 584.9-3.1 656.2 4.5 721.5 15.7 818 47 908.1 97.3 989 201.5 1156.5 375 1267.5 569 1290.9c30.9 3.7 45.2 4.5 79 4.5s48.1-.8 79-4.5c248.5-29.9 458.9-203.1 536.8-441.9 21.5-65.9 31.6-130.5 31.6-201 0-37.2-1.9-62.8-7.5-100-16.2-107.2-62.4-213.3-130.2-299.3-30.1-38.1-67.4-75.9-104.2-105.3C946 57.1 812.2 6.7 677 1.5c-8-.3-18.5-.7-23.5-.9-4.9-.2-17.3 0-27.5.5zm66 74c217.8 16.1 409.8 157.9 490.4 362.3 19.1 48.4 31 97.5 37.2 153.1 2.1 19.4 3 72.5 1.5 94.5-10 146.5-72.8 280-179.2 380.6-130.2 123.1-310.1 178-487.9 148.8-242.4-39.7-434.5-232.7-473-475.1-8.2-51.7-9.4-106.5-3.4-158.3 24.3-212 167.6-395.4 367.9-470.8 58.5-22 114.4-33.2 183-36.6 10.6-.5 48.3.3 63.5 1.5z"/><path d="M746.5 223.2c-72.9 36.6-217.2 159-308 261.3-60.4 68-101.8 131.2-118 180-21.9 65.6-18.3 140.9 9.7 207.5 9.3 22.3 26.5 51 42.4 71 9.6 12.1 38.1 40.2 49.9 49.1 44.4 33.8 91.2 53.4 147 61.6 17 2.5 61 2.5 78 0 37.1-5.5 74.1-17.4 103.4-33.4 76.4-41.6 130.6-111.6 150.1-193.8 14.9-62.6 7.7-154.5-21.1-269.9C855 456.7 814.3 344.4 773 262c-9-18.1-20.7-39.7-21.8-40.4-.4-.2-2.5.5-4.7 1.6zm-26 93.6c-.6.5-4.6 3.7-9 7.2-10.3 8.2-40.7 38.6-56.1 56-45.2 51.1-89.1 109.2-124.6 164.5-40.1 62.6-64.8 114-74.2 154.5-16.8 72.4-10.4 145.1 17.6 198 11.4 21.4 29.2 42.6 46 54.5 10.6 7.5 11.4 8.3 5.3 5.2-13.8-6.9-34-22.2-48-36.2-30.5-30.6-52.9-71.6-62.9-115-5.5-23.9-6.1-30.1-6.1-60 .1-29.9 1.2-40.2 7-63 12.4-48.9 56.6-119.6 123.1-197 58.7-68.3 138-143 176-165.9 5.8-3.5 7.8-4.5 5.9-2.8z"/></svg>